<svg id="图层_1" data-name="图层 1" xmlns="http://www.w3.org/2000/svg" viewBox="0 0 1133.86 1133.86"><defs><style>.cls-1{fill:#231815;}.cls-2{fill:#fff;}</style></defs><rect class="cls-1" x="-48.03" y="-46.4" width="1256.03" height="1256.03"/><polygon class="cls-2" points="277.7 371.97 238.21 371.97 238.21 717.93 277.7 717.93 277.7 561.46 417.13 561.46 417.13 521.97 277.7 521.97 277.7 371.97"/><path class="cls-2" d="M666.64,372H645a19.74,19.74,0,0,0-18.46,12.43L505.78,694.86a18.91,18.91,0,0,0,2.2,17.8A19.9,19.9,0,0,0,524.24,721H685.72v-9.41H689l5.86,9.19h21.77l9.14-11.4H713.1l-1.21,1.51h-11.6l-3.83-6v-6.54l3.91-6.5h11.44l1.63,2.15h9.39l1.92-1.45-8-10.58H694.79l-6.32,10.48h-2.75v-10H552.86l102.67-264L765.11,721.34H807L685.26,384.83A19.72,19.72,0,0,0,666.64,372Z"/><path class="cls-2" d="M844.21,676.17a6,6,0,0,0,3.46.05l14.56-6.89a2.28,2.28,0,0,1,2,0l11.85,6.39a1.36,1.36,0,0,0,.56.3h0a11.35,11.35,0,0,0,2.55.16c3.44,0,3.59-.07,3.54-2.94-.14-8-.35-67.24-.84-88.82-.38-16.74-.51-148.54-.51-154s-.09-10.85,0-16.28c0-2.17-.82-2.81-3.05-2.79-10.21.08-21,0-31.23,0-3.24,0-3.23.09-3.27,3.15,0,.45,0,.94,0,1.38,0,5.32-1.08,240.88-1.09,256.58,0,.75,0,1.49.06,2.23S843.4,676,844.21,676.17Zm25.94-254.74a2.76,2.76,0,0,1,5.52,0V439.9a2.76,2.76,0,0,1-5.52,0Zm-10.22,0a2.76,2.76,0,0,1,5.51,0V439.9a2.76,2.76,0,0,1-5.51,0Zm-10.23,0a2.76,2.76,0,0,1,5.52,0V439.9a2.76,2.76,0,0,1-5.52,0Z"/><path class="cls-2" d="M843.86,404.59c0,2.58.43,2.94,3.21,2.94,9.19,0,18.38.06,27.57,0,7.78,0,6.58,1.19,6.75-6.39a2.35,2.35,0,0,0-.68-2,4.73,4.73,0,0,0-.13-2.07c-.62-3.35-2.13-10-2.13-10s-1.67,7.49-2.22,11.3c0,.12,0,.21,0,.32h-1.62a3,3,0,0,0,.1-.79c-.05-2.6-.05-5.21,0-7.81a1.8,1.8,0,0,0-.94-1.9c0-.05,0-.08,0-.13-.76-2.42-1.27-4.9-1.86-7.37q-3.61-14.88-7.2-29.78a4,4,0,0,0-.55-1.45,1.37,1.37,0,0,0,.17-.55,1.14,1.14,0,0,0-.65-1.05l-.9-23.11-.89,23.1a1.17,1.17,0,0,0-.66,1.15c0,.13.09.18.12.3a3.37,3.37,0,0,0-.67,1.51q-1.89,7.94-3.77,15.88c-1.7,7.11-3.38,14.21-5.13,21.31a3,3,0,0,0,0,.41,2.2,2.2,0,0,0-.76,2c0,2.46.06,4.91,0,7.37a3,3,0,0,0,.12,1h-2a10.64,10.64,0,0,0-.21-1.6c-.62-3.35-2.13-10-2.13-10s-1.67,7.49-2.22,11.3a2.83,2.83,0,0,0,0,.76C843.7,399.68,843.86,401.12,843.86,404.59Z"/><path class="cls-2" d="M894.74,717.93h-2.88A.91.91,0,0,1,891,717v-2.6a.91.91,0,0,0-.91-.91h-4.93a2.23,2.23,0,0,1-2.23-2.24V682.44a2.24,2.24,0,0,0-2.24-2.24h-5.71a2.3,2.3,0,0,1-1.15-.31L863.85,674a2.27,2.27,0,0,0-2.28,0l-9.93,5.89a2.3,2.3,0,0,1-1.14.31h-5.71a2.24,2.24,0,0,0-2.24,2.24v28.83a2.24,2.24,0,0,1-2.24,2.24h-4.93a.91.91,0,0,0-.91.91V717a.91.91,0,0,1-.91.91h-2.87a.9.9,0,0,0-.91.91v1.59a.91.91,0,0,0,.91.91h64a.91.91,0,0,0,.91-.91v-1.59A.91.91,0,0,0,894.74,717.93Z"/><path class="cls-2" d="M479.17,714.05c-1.21-.33-2.42-.7-3.63-1l0-.57c.51-.11,1-.19,1.54-.31A2.2,2.2,0,0,0,479,709.8a2.31,2.31,0,0,0-2-2.25c-1.59-.37-3.19-.77-4.79-1.1-6-1.25-11.35-4-16.73-6.72a10.88,10.88,0,0,1-5.6-7.38c-2-7.34-1.4-14.73-.36-22.06,1.39-9.87,3-19.71,3.37-29.69a28.74,28.74,0,0,1,4.58-14.75,22.59,22.59,0,0,0,3.69-13c-.13-6.65,2.45-12.7,4.14-18.93,1.84-6.81,2.87-13.78,4.36-20.65a54.24,54.24,0,0,0,.75-21.19,4.55,4.55,0,0,1,.51-3.19c1.72-2.9,1.85-6,1.49-9.27a53.91,53.91,0,0,1,1.46-19.87,34.72,34.72,0,0,0,.38-13.88,39.71,39.71,0,0,1,0-10.67,57.22,57.22,0,0,0-.67-20.46,20,20,0,0,1,.05-10.31c.74-2.48,0-4.89-.7-7.26-2.2-7.15-5.86-13.61-9.7-19.93-1.21-2-1.44-5.43-2.8-8.93a1.33,1.33,0,0,0-.21-.54v0a15.07,15.07,0,0,0-.71-1.46,25,25,0,0,1-1.37-6.57c0-1.49,0-2.79,0-2.87.19-.82,1-1,1.77-1l3.84.09c3.29,0,4.34-.83,4.16-4.14-.09-1.72,1.53-2.53,1.48-4.28,0-1.07.73-2.25.34-3.58-.33-1.14.59-1.51,1.51-1.88,1.95-.78,2.07-2.1.89-3.69-.87-1.18-1.7-2.38-2.57-3.56s-1.3-2.25-.35-3.73c1.18-1.85-.73-3.41-.92-5.16s-2.48-3.66.92-4.87c.77-.27,0-1.79-.54-2.63-2.14-3.33-5.42-5.09-9-6.36-5.36-1.9-10.85-3.2-16.6-2.22-3.35.57-5.9,2.48-8.53,4.63a19.29,19.29,0,0,0-4.8,22.88c2.07,4,4.41,7.83,5.5,12.18a23.74,23.74,0,0,1,1.11,5.61,16.57,16.57,0,0,1-4.61,9.43,2.59,2.59,0,0,0-.56.85c-6.54,8.12-7.62,18.17-8.25,28.25-.31,5.14,2.44,9.89,3.47,14.89,1.32,6.45,2.7,12.89,3.43,19.44a4.26,4.26,0,0,1,.07,1.37c-1.41,5.93.72,11.38,2.46,16.82,1,3.25.43,6.27-.39,9.3-1.17,4.33-3.25,8.33-4.89,12.5-3.29,8.34-3.6,16.71-.06,25.1a44,44,0,0,0,3,4.89c3.27,5.57,3.57,11.63,3,17.85a100.43,100.43,0,0,0,.44,22.73c1.52,11.26-.39,22.06-3.57,32.72a65.94,65.94,0,0,0-1.36,32.8c1.82,8.79,2.29,17.77,2.94,26.7.43,5.91-.7,11.65-2.29,17.31-.63,2.25-.84,4.5.43,6.65,0,0,4.85,6.17,15.62,5.54.1,0,.2,0,.3-.08a5.8,5.8,0,0,1,2.72-.05,100.49,100.49,0,0,0,22.66.9,32.2,32.2,0,0,0,8.53-1.69,3.14,3.14,0,0,0,2.39-3C481.78,714.67,480.44,714.38,479.17,714.05Z"/><polygon class="cls-2" points="398.24 777.44 369.54 777.44 369.54 753.79 362.04 753.79 362.04 808.39 369.88 808.39 369.88 784.38 398.5 784.38 398.5 808.39 405.89 808.39 405.89 753.79 398.24 753.79 398.24 777.44"/><path class="cls-2" d="M488.74,771.2a40.12,40.12,0,0,0-4.41,4c-2.15-3.43-4.69-6-9.07-6.27s-7.59,1.87-11.1,4.51c-1.16-4.9-3.88-4.57-6.85-3.19v38.13h7l.15-.06V780c3.23-3.76,6.58-6,11-4.19,4.06,1.69,4,5.72,4.23,9.38.1,1.65,0,3.3,0,4.94v18.27h7.41c0-1.84,0-3.8,0-5.77,0-6.21-.1-12.94.22-19.15.28-5.35,3.22-8.22,7.65-8.24s6.61,2.44,7.11,8c.25,2.73.2,5.48.22,8.22,0,5.55,0,11.6,0,17h7.12c0-9.22.45-18.61-.12-27.43C508.63,770.29,497.55,765.23,488.74,771.2Z"/><path class="cls-2" d="M693.49,796.71l-1-.14-8.44-25.89H676.9c-2.8,8.42-5.74,17.22-8.68,26l-1-.09-7.87-25.94h-7.72l12.16,37.66h6.94l9.61-28.41c3.34,10.05,6.45,19.5,9.41,28.41h7.11c4-12.35,8.07-25.17,12.09-37.66H701.6C699,779.17,696.22,787.93,693.49,796.71Z"/><path class="cls-2" d="M846.54,753.79c-6.91,17.33-14.55,36.52-21.77,54.6H833c1.78-4.26,4.34-9.95,6.22-14.45h23.23l6.49,14.45h8c-7.22-18-14.71-37.27-21.64-54.6Zm-5,33.75,9.35-24.47c3.3,8.53,6.23,16.1,9.48,24.47Z"/><path class="cls-2" d="M241.51,808.29h32.72v-6.42h-25a123.28,123.28,0,0,1,.19-17.81h19.81v-6.45H249.49V759.89h25.08v-6H241.51Z"/><path class="cls-2" d="M440.6,797.63c-2.57,3.08-5.41,5-9,5.34-5.32.55-8.51-2.77-8.7-9.47s-.09-16.89-.06-24.53h-7.34c0,9.28-.62,21.59.64,30.1.84,5.64,5.07,9.3,10.76,9.95,5.23.59,9.65-1.28,13.86-4.78v4.56h6.86V769h-7Z"/><path class="cls-2" d="M285.48,808.32h7.19V753.89h-7.19Z"/><rect class="cls-2" x="883.27" y="753.79" width="7.14" height="54.61"/><path class="cls-2" d="M757.54,774.42v-5.61h-7.11v39.58h7.11v-23c.63-6.49,3.61-10.07,10.63-9.71,1.24.07,4,1.84,4,1.84,1.11-1.87,3-5.39,3-5.39C771,767.58,762.41,767.41,757.54,774.42Z"/><path class="cls-2" d="M594,782.58c-.38,2.1-.73,3.86.35,5.86h18.29c.16-2.06.61-3.82-.44-5.86Z"/><polygon class="cls-2" points="299.68 759.86 317.44 759.86 317.44 808.32 325.7 808.32 325.7 759.86 342.58 759.86 342.58 753.79 299.68 753.79 299.68 759.86"/><path class="cls-2" d="M574.76,768.48c-5.23-.6-9.65,1.27-13.86,4.77V768.7h-6.85v39.82h7V779.86c2.56-3.07,5.4-5,9-5.33,5.31-.55,8.51,2.77,8.69,9.46s.09,16.9.06,24.53h7.35c0-9.28.62-21.59-.64-30.09C584.69,772.78,580.45,769.12,574.76,768.48Z"/><path class="cls-2" d="M546.68,785.17a31.68,31.68,0,0,0-.76-6c-1.11-5.52-5-9.52-10.1-10.11-6.76-.79-12.91.62-17.73,5.67l3,4.19c3.07-2.57,7.5-4.65,12.39-3.62,4.48.95,5.65,3.94,5.65,11.07-1.35.1-3.39.08-4.82.22a33.45,33.45,0,0,0-13.12,3.56c-4.36,2.4-6,6.14-5.06,11.06s4,7.07,8.74,7.64a17.45,17.45,0,0,0,12-2.62c.73-.48,1.48-.92,2.23-1.38v3.8h7.62V786.07l0,0C546.68,785.78,546.68,785.48,546.68,785.17Zm-17.86,18.36c-2.86,0-5-1.11-5.65-4.12-.61-2.83,1.08-4.48,3.34-5.61,3.69-1.85,8.25-2.07,12.6-2.36v7A12.15,12.15,0,0,1,528.82,803.53Z"/><path class="cls-2" d="M647.61,785.17a32.5,32.5,0,0,0-.75-6c-1.12-5.52-5-9.52-10.11-10.11-6.76-.79-12.9.62-17.73,5.67l3,4.19c3.06-2.57,7.49-4.65,12.38-3.62,4.48.95,5.65,3.94,5.65,11.07-1.35.1-3.39.08-4.82.22a33.5,33.5,0,0,0-13.12,3.56c-4.36,2.4-6,6.14-5.06,11.06s4.05,7.07,8.74,7.64a17.44,17.44,0,0,0,12-2.62c.73-.48,1.48-.92,2.23-1.38v3.8h7.62V786.07l0,0C647.62,785.78,647.62,785.48,647.61,785.17Zm-17.86,18.36c-2.86,0-5-1.11-5.65-4.12-.61-2.83,1.08-4.48,3.34-5.61,3.69-1.85,8.25-2.07,12.6-2.36v7h0A12.15,12.15,0,0,1,629.75,803.53Z"/><path class="cls-2" d="M741.17,785.17a32.5,32.5,0,0,0-.75-6c-1.12-5.52-5-9.52-10.1-10.11-6.77-.79-12.91.62-17.74,5.67l3,4.19c3.06-2.57,7.49-4.65,12.38-3.62,4.48.95,5.65,3.94,5.65,11.07-1.35.1-3.39.08-4.81.22a33.5,33.5,0,0,0-13.13,3.56c-4.36,2.4-6,6.14-5.06,11.06s4,7.07,8.74,7.64a17.44,17.44,0,0,0,12-2.62c.73-.48,1.48-.92,2.23-1.38v3.8h7.62V786.07l0,0C741.18,785.78,741.18,785.48,741.17,785.17Zm-17.86,18.36c-2.86,0-5-1.11-5.65-4.12-.61-2.83,1.08-4.48,3.34-5.61,3.69-1.85,8.25-2.07,12.6-2.36v7A12.13,12.13,0,0,1,723.31,803.53Z"/><path class="cls-2" d="M788.77,769.75c-12.34,3.73-16.9,21.21-8.49,32.55,6.26,8.43,20.78,9.1,28.15,1.92l-3.53-5.08c-1.46,1.05-3.28,2.59-5.17,3.17-9.1,2.79-16.23-3-15-13H810C812.26,774.86,802,765.76,788.77,769.75Zm-3.86,14.52c.24-5.68,3.34-9.06,8.69-9.55s8.8,2.59,10.09,9.55Z"/></svg>